<?xml version="1.0" encoding="UTF-8" standalone="no"?>
<svg width="114px" height="93px" viewBox="0 0 114 93" version="1.1" xmlns="http://www.w3.org/2000/svg" xmlns:xlink="http://www.w3.org/1999/xlink">
    <!-- Generator: Sketch 40 (33762) - http://www.bohemiancoding.com/sketch -->
    <title>buildings</title>
    <desc>Created with Sketch.</desc>
    <defs></defs>
    <g id="Page-1" stroke="none" stroke-width="1" fill="none" fill-rule="evenodd">
        <g id="buildings" transform="translate(0.000000, -1.000000)" fill="#000000">
            <g id="Group">
                <polygon id="Shape" points="24.8546795 46.2966667 21.1703846 48.545 21.1703846 51.9662179 24.8546795 49.7215385"></polygon>
                <polygon id="Shape" points="24.8546795 41.6952564 21.1703846 43.9423718 21.1703846 47.3660256 24.8546795 45.1164744"></polygon>
                <polygon id="Shape" points="24.8546795 37.0962821 21.1703846 39.3421795 21.1703846 42.7707051 24.8546795 40.5223718"></polygon>
                <polygon id="Shape" points="24.8546795 32.4985256 21.1703846 34.7432051 21.1703846 38.1680769 24.8546795 35.9209615"></polygon>
                <polygon id="Shape" points="24.8546795 27.8983333 21.1703846 30.1442308 21.1703846 33.5691026 24.8546795 31.3244231"></polygon>
                <polygon id="Shape" points="70.8882692 63.6390385 65.6108974 66.8580769 65.6108974 71.7578846 70.8882692 68.5400641"></polygon>
                <polygon id="Shape" points="70.8882692 57.0523718 65.6108974 60.2689744 65.6108974 65.1724359 70.8882692 61.9521795"></polygon>
                <polygon id="Shape" points="70.8882692 50.4717949 65.6108974 53.6859615 65.6108974 58.590641 70.8882692 55.3728205"></polygon>
                <polygon id="Shape" points="70.8882692 43.8887821 65.6108974 47.1041667 65.6108974 52.0051923 70.8882692 48.7885897"></polygon>
                <polygon id="Shape" points="70.8882692 37.3045513 65.6108974 40.5187179 65.6108974 45.4209615 70.8882692 42.2055769"></polygon>
                <polygon id="Shape" points="70.8882692 30.7203205 65.6108974 33.9357051 65.6108974 38.8367308 70.8882692 35.6213462"></polygon>
                <polygon id="Shape" points="70.8882692 24.1348718 65.6108974 27.3526923 65.6108974 32.2525 70.8882692 29.0358974"></polygon>
                <path d="M99.1629487,10.9992949 L84.3697436,19.6930128 L84.3697436,19.7648718 L84.3697436,58.2203846 L89.3012179,61.2798718 L78.4249359,68.0772436 L78.4249359,13.4607692 L57.2435897,1.01942308 L36.0622436,13.4619872 L36.0622436,13.5667308 L36.0622436,66.6583333 L26.3685897,60.5990385 L30.1186538,58.2898077 L30.1186538,19.6905769 L15.3242308,11.0005128 L0.528589744,19.6917949 L0.528589744,19.7636538 L0.528589744,58.2191667 L15.3242308,67.3915385 L15.3266667,67.3915385 L22.2750641,63.1165385 L36.0634615,71.7323077 L36.0634615,80.7037179 L57.2435897,93.8380769 L57.2460256,93.8380769 L78.4249359,80.8145513 L78.4249359,73.1560897 L93.3813462,63.8095513 L99.1629487,67.3927564 L99.1653846,67.3927564 L113.95859,58.2898077 L113.95859,19.6905769 L99.1629487,10.9992949 L99.1629487,10.9992949 Z M4.33955128,20.2971154 L15.3266667,13.8444231 L26.3174359,20.2922436 L15.3303205,26.9946154 L4.33955128,20.2971154 L4.33955128,20.2971154 Z M21.1703846,53.4740385 L21.1703846,61.0837821 L16.9453205,63.6585256 L16.9453205,29.6996795 L28.3477564,22.7451923 L28.3477564,56.7064744 L24.8534615,58.8366667 L24.8534615,51.2269231 L21.1703846,53.4740385 L21.1703846,53.4740385 Z M57.2435897,24.6196154 L40.3689103,14.3279487 L57.2435897,4.41628205 L74.1170513,14.3279487 L57.2435897,24.6196154 L57.2435897,24.6196154 Z M75.8891667,79.705 L70.8907051,82.7547436 L70.8907051,70.6994872 L65.6133333,73.9185256 L65.6133333,85.9762179 L59.5686538,89.6629487 L59.5686538,27.3332051 L75.8879487,17.3776923 L75.8879487,79.705 L75.8891667,79.705 Z M88.1770513,20.2971154 L99.1641667,13.8444231 L110.1525,20.2922436 L99.1653846,26.9946154 L88.1770513,20.2971154 L88.1770513,20.2971154 Z M112.186474,56.7064744 L108.695833,58.8366667 L108.695833,51.2269231 L105.012756,53.4752564 L105.012756,61.0837821 L100.786474,63.6597436 L100.786474,29.6996795 L112.186474,22.7451923 L112.186474,56.7064744 L112.186474,56.7064744 Z" id="Shape"></path>
                <polygon id="Shape" points="108.695833 46.2966667 105.012756 48.545 105.012756 51.9662179 108.695833 49.7215385"></polygon>
                <polygon id="Shape" points="108.695833 41.6952564 105.012756 43.9423718 105.012756 47.3660256 108.695833 45.1164744"></polygon>
                <polygon id="Shape" points="108.695833 37.0962821 105.012756 39.3421795 105.012756 42.7707051 108.695833 40.5223718"></polygon>
                <polygon id="Shape" points="108.695833 32.4985256 105.012756 34.7432051 105.012756 38.1680769 108.695833 35.9209615"></polygon>
                <polygon id="Shape" points="108.695833 27.8983333 105.012756 30.1442308 105.012756 33.5691026 108.695833 31.3244231"></polygon>
            </g>
        </g>
    </g>
</svg>