<?xml version="1.0" encoding="UTF-8" standalone="no"?>
<svg width="95px" height="95px" viewBox="0 0 95 95" version="1.1" xmlns="http://www.w3.org/2000/svg" xmlns:xlink="http://www.w3.org/1999/xlink">
    <!-- Generator: Sketch 40 (33762) - http://www.bohemiancoding.com/sketch -->
    <title>Shape</title>
    <desc>Created with Sketch.</desc>
    <defs></defs>
    <g id="Page-1" stroke="none" stroke-width="1" fill="none" fill-rule="evenodd">
        <path d="M90.7270383,20.4188717 C92.777481,20.4188717 94.4395604,18.7567923 94.4395604,16.7063496 C94.4395604,14.6559069 92.777481,12.9938275 90.7270383,12.9938275 C88.9697906,12.9938275 87.5038154,14.2194789 87.1202586,15.8604098 L68.8171977,19.572932 C67.93569,17.8377941 66.2813009,16.5669618 64.3058392,16.2103213 L64.0174506,8.14409309 C65.5324519,7.49714141 66.5966057,5.99559828 66.5966057,4.2421958 C66.5956444,1.89951935 64.6961251,0 62.3524873,0 C60.0098109,0 58.1093302,1.89951935 58.1093302,4.2431571 C58.1093302,6.24841892 59.5041696,7.91722742 61.3738888,8.36038452 L61.6574709,16.2958765 C60.0838306,16.6842398 58.7437851,17.6561093 57.880542,18.974045 L42.8766462,9.90037946 C42.9468207,9.61583607 42.9948855,9.32167974 42.9948855,9.01598786 C42.9948855,6.96458386 41.3328061,5.30346572 39.2823634,5.30346572 C37.232882,5.30346572 35.5698412,6.96458386 35.5698412,9.01598786 C35.5698412,11.0673919 37.2319207,12.72851 39.2823634,12.72851 C40.056206,12.72851 40.7742936,12.4901088 41.368374,12.0854035 L56.9250145,21.4955224 C56.8788724,21.8021756 56.8481109,22.1145965 56.8481109,22.4337465 C56.8481109,23.3594738 57.0519055,24.2361751 57.408546,25.0282823 L33.7741418,48.6069314 C32.6830717,47.7148495 31.2901549,47.1784467 29.7703472,47.1784467 C28.4793277,47.1784467 27.2805926,47.56681 26.2798842,48.2301037 L15.0644529,37.0146724 C15.6566108,36.1735391 16.0113287,35.1526436 16.0113287,34.0461928 C16.0113287,31.1901847 13.6965298,28.8753858 10.8405217,28.8753858 C7.98451364,28.8753858 5.66971475,31.1901847 5.66971475,34.0461928 C5.66971475,36.9022009 7.98547493,39.2169997 10.8405217,39.2169997 C11.6220547,39.2169997 12.3564843,39.0305085 13.0207393,38.7190488 L24.4265071,50.1257779 C23.8055104,51.1053377 23.4411795,52.2627372 23.4411795,53.5076145 C23.4411795,53.9853782 23.4988572,54.4487225 23.5988319,54.8957248 L7.43657536,60.3270428 C6.77135907,59.3253731 5.63606942,58.6649633 4.34408865,58.6649633 C2.29364594,58.6649633 0.631566511,60.3270428 0.631566511,62.3774855 C0.631566511,64.4279282 2.29364594,66.088085 4.34408865,66.088085 C6.2032336,66.088085 7.72880911,64.7182393 7.99989436,62.9350367 L24.7245086,57.3153048 C25.6838812,58.5842145 27.1075594,59.4772578 28.7456065,59.7444978 L28.7427226,69.2469011 C26.8460871,69.6689097 25.4262541,71.3569441 25.4262541,73.3814318 C25.4262541,75.7250696 27.3257734,77.6236276 29.6694112,77.6236276 C32.0130489,77.6236276 33.9125683,75.7241083 33.9125683,73.3814318 C33.9125683,71.653023 32.876292,70.1726284 31.3939748,69.5122186 L31.39782,59.6166456 C33.2223583,59.1311915 34.719095,57.8555527 35.5035119,56.1752087 L56.8942531,60.4827726 C56.8625303,60.7077157 56.8250398,60.9297749 56.8250398,61.1624083 C56.8250398,63.8828738 59.0312123,66.0890463 61.7516778,66.0890463 C62.1112022,66.0890463 62.4591911,66.045788 62.7966057,65.9727296 L66.294759,74.6147736 C65.285399,75.4184164 64.6249892,76.6402226 64.6249892,78.0321781 C64.6249892,78.7435366 64.8105192,79.4068303 65.1133272,79.9999494 L58.014162,87.4432583 C57.9824393,87.4307614 57.9545617,87.4105742 57.9209164,87.3990387 C55.9925582,86.7040223 53.8652118,87.7066532 53.172118,89.6350114 C52.4790241,91.5633696 53.4797325,93.6897546 55.4080907,94.3838098 C57.3383715,95.0778649 59.4637952,94.075234 60.1578503,92.1468758 C60.5154522,91.1519352 60.4154775,90.1079686 59.9761655,89.2293448 L66.975356,81.8879332 C67.5838559,82.2080445 68.2654142,82.40511 68.9988825,82.40511 C70.1476303,82.40511 71.1839065,81.9533013 71.9654395,81.2284847 L85.128455,90.0772072 C84.9957962,90.4578801 84.9092796,90.8606628 84.9092796,91.2894005 C84.9092796,93.3398432 86.5713591,95 88.6198792,95 C90.6703219,95 92.3324013,93.3379206 92.3324013,91.2894005 C92.3324013,89.2379965 90.6703219,87.5768783 88.6198792,87.5768783 C87.977734,87.5768783 87.3807696,87.7556792 86.8530186,88.0440678 L73.2804914,78.9204149 C73.3400917,78.6329876 73.373737,78.3359474 73.373737,78.0302555 C73.373737,75.612598 71.4146174,73.6544397 68.9979212,73.6544397 C68.9210176,73.6544397 68.850843,73.6727043 68.775862,73.6755882 L65.1671597,64.6999747 C66.0957709,63.8040476 66.6773545,62.5524412 66.6773545,61.1604857 C66.6773545,58.4400202 64.471182,56.2338477 61.7507165,56.2338477 C60.2184119,56.2338477 58.8658696,56.9480901 57.9632134,58.0468505 L36.0947084,53.5749051 C36.0947084,53.5518341 36.0975923,53.5297243 36.0975923,53.5066532 C36.0975923,52.4915254 35.8534233,51.535998 35.4285308,50.686213 L58.981225,27.1613964 C60.09825,28.1524918 61.5651865,28.7600304 63.175356,28.7600304 C64.4769498,28.7600304 65.6843366,28.3658993 66.6898514,27.6929927 L78.9011845,39.9043258 C78.6647059,40.4330382 78.5253181,41.0155831 78.5253181,41.6317733 C78.5253181,43.9763724 80.4257987,45.8749304 82.7684752,45.8749304 C85.1111516,45.8749304 87.010671,43.9763724 87.010671,41.6317733 C87.010671,39.2881356 85.1111516,37.3886162 82.7684752,37.3886162 C82.0119359,37.3886162 81.3111516,37.6029851 80.6978453,37.9500126 L68.5364995,25.7877055 C69.1469219,24.8139135 69.5054851,23.666127 69.5054851,22.4327852 C69.5054851,22.3337718 69.4949108,22.2386036 69.4901043,22.1405515 L87.4903573,18.4905135 C88.1228896,19.6354161 89.3273925,20.4188717 90.7270383,20.4188717 L90.7270383,20.4188717 Z" id="Shape" fill="#000000"></path>
    </g>
</svg>