<svg xmlns="http://www.w3.org/2000/svg" xmlns:xlink="http://www.w3.org/1999/xlink" viewBox="0 0 100 125" version="1.1" xml:space="preserve" style="" x="0px" y="0px" fill-rule="evenodd" clip-rule="evenodd" stroke-linejoin="round" stroke-miterlimit="1.41421"><path d="M9.269,68.68L9.269,29.163L83.364,29.163L83.364,70.539L23.211,70.539L9.269,70.539L9.269,68.68ZM82.195,30.357L10.467,30.357L10.467,69.279L82.195,69.279L82.195,30.357ZM41.15,42.745C37.243,38.838 30.885,38.838 26.979,42.745C25.086,44.637 24.044,47.154 24.044,49.83C24.044,52.507 25.086,55.024 26.979,56.916C28.871,58.808 31.388,59.851 34.065,59.851C36.741,59.851 39.258,58.808 41.15,56.916L53.564,44.502L53.632,44.438C56.604,41.466 61.442,41.466 64.414,44.439C65.854,45.879 66.647,47.794 66.647,49.83C66.647,51.866 65.854,53.782 64.414,55.222C62.975,56.661 61.059,57.454 59.023,57.454C56.986,57.454 55.072,56.661 53.633,55.222L50.797,52.395C50.328,51.927 49.331,52.609 49.331,52.609C49.331,52.609 48.633,53.622 49.101,54.092L52.135,57.113L52.14,57.113C54.007,58.881 56.442,59.851 59.023,59.851C61.7,59.851 64.217,58.809 66.109,56.916C68.002,55.024 69.044,52.507 69.044,49.83C69.044,47.153 68.002,44.637 66.109,42.745C64.217,40.852 61.7,39.81 59.023,39.81C56.526,39.81 54.166,40.718 52.347,42.355L52.334,42.343L39.456,55.222C38.015,56.661 36.101,57.454 34.064,57.454C32.028,57.454 30.113,56.661 28.673,55.222C27.233,53.782 26.44,51.866 26.44,49.829C26.44,47.793 27.232,45.878 28.673,44.438C31.646,41.465 36.483,41.466 39.456,44.438L42.312,47.299C42.781,47.767 43.72,47.049 43.72,47.049C43.72,47.049 44.477,46.072 44.008,45.603L41.15,42.745ZM87.59,41.908L91.045,41.908C92.506,41.908 94.044,43.102 94.044,44.576L94.044,55.426C94.044,56.899 92.505,58.094 91.045,58.094L86.591,58.094L86.591,69.389C86.591,72.041 84.259,74.191 81.383,74.191L11.163,74.19C8.288,74.19 5.956,72.039 5.956,69.388L5.956,30.612C5.956,27.959 8.289,25.809 11.163,25.809L81.382,25.81C84.259,25.81 86.591,27.96 86.591,30.613L86.591,41.907L86.59,41.907L86.59,58.093L87.59,58.093L87.59,41.908Z" style="" fill="black"/><text x="0" y="115" fill="#000000" font-size="5px" font-weight="bold" font-family="'Helvetica Neue', Helvetica, Arial-Unicode, Arial, Sans-serif">Created by Gianluca Lanzetta</text><text x="0" y="120" fill="#000000" font-size="5px" font-weight="bold" font-family="'Helvetica Neue', Helvetica, Arial-Unicode, Arial, Sans-serif">from the Noun Project</text></svg>