<?xml version="1.0" encoding="UTF-8" standalone="no"?>
<svg width="150px" height="95px" viewBox="0 0 150 95" version="1.1" xmlns="http://www.w3.org/2000/svg" xmlns:xlink="http://www.w3.org/1999/xlink">
    <!-- Generator: Sketch 40 (33762) - http://www.bohemiancoding.com/sketch -->
    <title>Group</title>
    <desc>Created with Sketch.</desc>
    <defs></defs>
    <g id="Page-1" stroke="none" stroke-width="1" fill="none" fill-rule="evenodd">
        <g id="Group" transform="translate(0.000000, 0.000000)" fill="#000000">
            <path d="M144.482235,92.0885294 L144.482235,73.8764706 L146.943403,73.8764706 L146.943403,7.65588235 L134.577002,7.65588235 L134.577002,40.5761765 L133.030426,40.5761765 C131.580122,40.5761765 130.368948,42.9455882 130.08634,46.0861765 L129.018022,46.0861765 C127.606538,46.0861765 126.457475,48.5170588 126.457475,51.5067647 L126.457475,78.9533824 C126.457475,80.4035294 125.802199,81.5798529 124.974563,81.5798529 C124.167114,81.5798529 123.508732,80.3979412 123.505626,78.9477941 L123.466806,62.3898529 C123.460595,59.4057353 122.233893,56.9748529 120.730794,56.9748529 L119.68111,56.9748529 L119.406267,31.1627941 C119.353472,26.2954412 117.505654,20.4864706 115.199765,17.9410294 L103.935843,5.49882353 C101.765046,3.10426471 97.9281075,1.12044118 95.3830885,1.07573529 L63.9546659,0.553235294 C61.3894607,0.553235294 57.6192922,2.17941176 55.3739613,4.25264706 L42.2109801,16.4070588 C40.0588164,18.3964706 36.52933,21.6125 34.3662968,23.56 L22.173808,34.5325 C19.9424521,36.5414706 16.6893619,40.7605882 14.9238423,43.9347059 L11.1148542,50.7886765 C9.24219224,54.1555882 7.77480789,60.5261765 7.77480789,65.2957353 L7.77480789,67.5114706 C7.77480789,72.6498529 10.0977782,76.8298529 12.951802,76.8298529 L28.6551437,76.8298529 C28.9486206,83.7285294 31.3973668,89.5347059 34.7902078,92.0885294 L0,92.0885294 L0,94.8826471 L137.454318,94.8826471 L144.480682,94.8826471 L149.454261,94.8826471 L149.454261,92.0885294 L144.482235,92.0885294 L144.482235,92.0885294 Z M136.12979,10.45 L145.390616,10.45 L145.390616,71.0823529 L144.482235,71.0823529 L137.455871,71.0823529 L136.12979,71.0823529 L136.12979,10.45 L136.12979,10.45 Z M133.030426,43.3702941 L134.577002,43.3702941 L134.577002,51.5961765 L133.030426,51.5961765 C132.257137,51.5961765 131.577016,49.6738235 131.577016,47.4804412 C131.577016,45.2870588 132.257137,43.3702941 133.030426,43.3702941 L133.030426,43.3702941 Z M9.32759556,67.5114706 L9.32759556,65.2957353 C9.32759556,61.3141176 10.6490179,55.575 12.2126751,52.7641176 L16.0216632,45.9101471 C17.661407,42.9595588 20.7980381,38.8941176 22.8694569,37.0304412 L35.0619457,26.0579412 C37.2296373,24.1076471 40.7653348,20.8832353 42.9221569,18.8966176 L56.085138,6.73941176 C58.1084203,4.87014706 61.6379067,3.35014706 64.0385165,3.35014706 L64.0400693,3.35014706 L95.3691134,3.86985294 C97.6377362,3.90897059 101.188962,5.74470588 103.123735,7.88220588 L114.387657,20.3216176 C116.226157,22.3529412 117.811554,27.3404412 117.853479,31.2186765 L118.240123,67.5422059 C118.258756,69.2689706 117.900063,70.8979412 117.230811,72.1301471 C116.558454,73.3595588 115.660943,74.0385294 114.699767,74.0385294 L108.844205,74.0385294 C108.446691,64.7173529 104.128389,57.3772059 98.8489106,57.3772059 C93.5694325,57.3772059 89.2526827,64.7173529 88.8551691,74.0385294 L48.6441795,74.0385294 C48.2466658,64.7173529 43.9283633,57.3772059 38.6488852,57.3772059 C33.3694071,57.3772059 29.0526574,64.7173529 28.6551437,74.0385294 L12.951802,74.0385294 C10.9533643,74.0357353 9.32759556,71.1075 9.32759556,67.5114706 L9.32759556,67.5114706 Z M107.330237,75.4327941 C107.330237,75.905 107.314709,76.3688235 107.291417,76.8298529 C106.897009,84.5891176 103.263486,90.6914706 98.8489106,90.6914706 C94.435888,90.6914706 90.8023648,84.5891176 90.4079568,76.8298529 C90.3846649,76.3688235 90.3691371,75.905 90.3691371,75.4327941 C90.3691371,74.9605882 90.3862177,74.4967647 90.4079568,74.0357353 C90.8023648,66.2708824 94.435888,60.1685294 98.8489106,60.1685294 C103.263486,60.1685294 106.897009,66.2708824 107.291417,74.0357353 C107.314709,74.4967647 107.330237,74.9605882 107.330237,75.4327941 L107.330237,75.4327941 Z M30.2094842,76.8298529 C30.1861924,76.3688235 30.1706645,75.905 30.1706645,75.4327941 C30.1706645,74.9605882 30.1861924,74.4967647 30.2094842,74.0357353 C30.6023395,66.2708824 34.2358626,60.1685294 38.650438,60.1685294 C43.0650134,60.1685294 46.6985365,66.2708824 47.0929446,74.0357353 C47.1162364,74.4967647 47.1317643,74.9605882 47.1317643,75.4327941 C47.1317643,75.905 47.1162364,76.3688235 47.0929446,76.8298529 C46.7000893,84.5891176 43.0650134,90.6914706 38.650438,90.6914706 C34.2358626,90.6914706 30.6023395,84.5891176 30.2094842,76.8298529 L30.2094842,76.8298529 Z M48.6441795,76.8298529 L88.8551691,76.8298529 C89.148646,83.7285294 91.5973921,89.5347059 94.9886804,92.0885294 L42.5091154,92.0885294 C45.9035092,89.5347059 48.3507026,83.7285294 48.6441795,76.8298529 L48.6441795,76.8298529 Z M102.709141,92.0885294 C106.103535,89.5347059 108.550728,83.7285294 108.844205,76.8298529 L114.699767,76.8298529 C116.081748,76.8298529 117.373668,75.8547059 118.339501,74.0860294 C119.303783,72.3145588 119.820861,69.9702941 119.794464,67.4891176 L119.712166,59.7717647 L120.730794,59.7717647 C121.36899,59.7717647 121.910913,60.9788235 121.914019,62.4038235 L121.952838,78.9617647 C121.95905,81.9458824 123.314633,84.3767647 124.997855,84.3767647 C126.659338,84.3767647 128.010263,81.9458824 128.010263,78.9561765 L128.010263,51.5095588 C128.010263,50.1097059 128.482311,48.8830882 129.018022,48.8830882 L130.08634,48.8830882 C130.368948,52.0236765 131.580122,54.3958824 133.030426,54.3958824 L134.577002,54.3958824 L134.577002,73.8820588 L137.455871,73.8820588 L137.455871,92.0941176 L102.709141,92.0941176 L102.709141,92.0885294 Z M139.007105,92.0885294 L139.007105,73.8764706 L142.927894,73.8764706 L142.927894,92.0885294 L139.007105,92.0885294 L139.007105,92.0885294 Z" id="Shape"></path>
            <path d="M96.5305986,52.8451471 L101.403246,52.8451471 C104.258823,52.8451471 106.581793,48.6651471 106.581793,43.5267647 L106.581793,25.1889706 C106.581793,20.0505882 104.258823,15.8705882 101.403246,15.8705882 L96.5305986,15.8705882 C93.675022,15.8705882 91.3520517,20.0505882 91.3520517,25.1889706 L91.3520517,43.5267647 C91.3520517,48.6651471 93.675022,52.8451471 96.5305986,52.8451471 L96.5305986,52.8451471 Z M92.9048393,25.1917647 C92.9048393,21.5957353 94.5321608,18.6675 96.5305986,18.6675 L101.403246,18.6675 C103.401684,18.6675 105.029006,21.5957353 105.029006,25.1917647 L105.029006,43.5295588 C105.029006,47.1255882 103.401684,50.0538235 101.403246,50.0538235 L96.5305986,50.0538235 C94.5321608,50.0538235 92.9048393,47.1255882 92.9048393,43.5295588 L92.9048393,25.1917647 L92.9048393,25.1917647 Z" id="Shape"></path>
            <path d="M96.2743886,47.6536765 L101.890822,47.6536765 C102.935848,47.6536765 103.785223,46.1252941 103.785223,44.2448529 L103.785223,43.2641176 C103.785223,41.3836765 102.935848,39.8552941 101.890822,39.8552941 L96.2743886,39.8552941 C95.2293625,39.8552941 94.3799876,41.3836765 94.3799876,43.2641176 L94.3799876,44.2448529 C94.3799876,46.1252941 95.2293625,47.6536765 96.2743886,47.6536765 L96.2743886,47.6536765 Z M95.9327753,43.2641176 C95.9327753,42.9316176 96.0896069,42.6494118 96.2743886,42.6494118 L101.890822,42.6494118 C102.075603,42.6494118 102.232435,42.9316176 102.232435,43.2641176 L102.232435,44.2448529 C102.232435,44.5773529 102.075603,44.8595588 101.890822,44.8595588 L96.2743886,44.8595588 C96.0896069,44.8595588 95.9327753,44.5773529 95.9327753,44.2448529 L95.9327753,43.2641176 L95.9327753,43.2641176 Z" id="Shape"></path>
            <path d="M96.2743886,38.2542647 L101.890822,38.2542647 C102.935848,38.2542647 103.785223,36.7258824 103.785223,34.8454412 L103.785223,33.8647059 C103.785223,31.9842647 102.935848,30.4558824 101.890822,30.4558824 L96.2743886,30.4558824 C95.2293625,30.4558824 94.3799876,31.9842647 94.3799876,33.8647059 L94.3799876,34.8454412 C94.3799876,36.7286765 95.2293625,38.2542647 96.2743886,38.2542647 L96.2743886,38.2542647 Z M95.9327753,33.8675 C95.9327753,33.535 96.0896069,33.2527941 96.2743886,33.2527941 L101.890822,33.2527941 C102.075603,33.2527941 102.232435,33.535 102.232435,33.8675 L102.232435,34.8482353 C102.232435,35.1807353 102.075603,35.4629412 101.890822,35.4629412 L96.2743886,35.4629412 C96.0896069,35.4629412 95.9327753,35.1807353 95.9327753,34.8482353 L95.9327753,33.8675 L95.9327753,33.8675 Z" id="Shape"></path>
            <path d="M96.2743886,28.8576471 L101.890822,28.8576471 C102.935848,28.8576471 103.785223,27.3292647 103.785223,25.4488235 L103.785223,24.4680882 C103.785223,22.5876471 102.935848,21.0592647 101.890822,21.0592647 L96.2743886,21.0592647 C95.2293625,21.0592647 94.3799876,22.5876471 94.3799876,24.4680882 L94.3799876,25.4488235 C94.3799876,27.3292647 95.2293625,28.8576471 96.2743886,28.8576471 L96.2743886,28.8576471 Z M95.9327753,24.4708824 C95.9327753,24.1383824 96.0896069,23.8561765 96.2743886,23.8561765 L101.890822,23.8561765 C102.075603,23.8561765 102.232435,24.1383824 102.232435,24.4708824 L102.232435,25.4516176 C102.232435,25.7841176 102.075603,26.0663235 101.890822,26.0663235 L96.2743886,26.0663235 C96.0896069,26.0663235 95.9327753,25.7841176 95.9327753,25.4516176 L95.9327753,24.4708824 L95.9327753,24.4708824 Z" id="Shape"></path>
        </g>
    </g>
</svg>