<?xml version="1.0" encoding="UTF-8" standalone="no"?>
<svg width="95px" height="95px" viewBox="0 0 95 95" version="1.1" xmlns="http://www.w3.org/2000/svg" xmlns:xlink="http://www.w3.org/1999/xlink">
    <!-- Generator: Sketch 40 (33762) - http://www.bohemiancoding.com/sketch -->
    <title>hydrogen</title>
    <desc>Created with Sketch.</desc>
    <defs></defs>
    <g id="Page-1" stroke="none" stroke-width="1" fill="none" fill-rule="evenodd">
        <g id="hydrogen" fill="#000000">
            <circle id="Oval" cx="47.5" cy="47.5" r="14.027561"></circle>
            <path d="M73.1372561,7.60231707 L73.1372561,7.60231707 C65.6009756,2.7804878 56.9026829,0.200426829 47.944878,0.200426829 L47.944878,2.5175 C56.414939,2.5175 64.6556098,4.9179878 71.7921951,9.45365854 L71.1515244,10.4546341 C83.8687805,18.589878 91.4606707,32.4390244 91.4606707,47.5 C91.4606707,71.740061 71.740061,91.4606707 47.5,91.4606707 C23.259939,91.4606707 3.53932927,71.740061 3.53932927,47.5 C3.53932927,37.9791463 6.67085366,28.6621951 12.3778049,21.0772561 C13.5479268,21.7179268 14.8605488,22.0666463 16.2114024,22.0666463 C20.6358537,22.0666463 24.2342683,18.4682317 24.2342683,14.0437805 C24.2342683,12.2364634 23.6422561,10.5253049 22.5207927,9.0979878 L22.5207927,9.0979878 C20.9857317,7.14237805 18.6860366,6.02091463 16.2102439,6.02091463 C11.7857927,6.02091463 8.18737805,9.61932927 8.18737805,14.0437805 C8.18737805,15.7607317 8.74695122,17.4220732 9.75371951,18.7903049 C3.49993902,27.010122 0.0637195122,37.1438415 0.0637195122,47.5 C0.0637195122,73.6562805 21.3437195,94.9362805 47.5,94.9362805 C73.6562805,94.9362805 94.9362805,73.6562805 94.9362805,47.5 C94.9362805,31.2932317 86.7882927,16.3898171 73.1372561,7.60231707 L73.1372561,7.60231707 Z M16.212561,9.49652439 C17.6132317,9.49652439 18.9165854,10.1337195 19.7878049,11.2435976 L21.154878,10.1707927 L19.7878049,11.2435976 C20.4226829,12.0534146 20.7586585,13.0219512 20.7586585,14.0437805 C20.7586585,16.5520122 18.7184756,18.5910366 16.2114024,18.5910366 C15.0934146,18.5910366 14.0159756,18.175122 13.1771951,17.4209146 L13.1771951,17.4209146 C12.2156098,16.5554878 11.6641463,15.325122 11.6641463,14.0437805 C11.6641463,11.5367073 13.7043293,9.49652439 16.212561,9.49652439 L16.212561,9.49652439 Z" id="Shape"></path>
        </g>
    </g>
</svg>