<?xml version="1.0" encoding="utf-8"?>
<!-- Generator: Adobe Illustrator 16.0.0, SVG Export Plug-In . SVG Version: 6.00 Build 0)  -->
<!DOCTYPE svg PUBLIC "-//W3C//DTD SVG 1.1//EN" "http://www.w3.org/Graphics/SVG/1.1/DTD/svg11.dtd">
<svg version="1.1" id="degrade" xmlns="http://www.w3.org/2000/svg" xmlns:xlink="http://www.w3.org/1999/xlink" x="0px" y="0px"
	 width="335.9px" height="113.4px" viewBox="0 0 335.9 113.4" enable-background="new 0 0 335.9 113.4" xml:space="preserve">
<linearGradient id="SVGID_1_" gradientUnits="userSpaceOnUse" x1="167.9683" y1="51.5391" x2="167.9683" y2="0">
	<stop  offset="0" style="stop-color:#FFFFFF;stop-opacity:0"/>
	<stop  offset="0.1557" style="stop-color:#C2E8F8;stop-opacity:0.1557"/>
	<stop  offset="0.3239" style="stop-color:#88D2F2;stop-opacity:0.3239"/>
	<stop  offset="0.4866" style="stop-color:#57C0ED;stop-opacity:0.4866"/>
	<stop  offset="0.6395" style="stop-color:#31B1E9;stop-opacity:0.6395"/>
	<stop  offset="0.7804" style="stop-color:#16A7E6;stop-opacity:0.7804"/>
	<stop  offset="0.905" style="stop-color:#06A1E4;stop-opacity:0.905"/>
	<stop  offset="1" style="stop-color:#009FE3"/>
</linearGradient>
<path fill-rule="evenodd" clip-rule="evenodd" fill="url(#SVGID_1_)" d="M335.9,51.5C292.2,19.6,233,0,168,0
	C102.9,0,43.8,19.6,0,51.5H335.9z"/>
<g>
	<path fill="#009FE3" d="M143.2,60.7c-3.1,0-4.7,2.5-5.2,5.7c-0.5,3.4-2.3,15.3-2.7,18.4c-0.2,1.8-0.4,3.7-2.1,4.5
		c-1.8,0.8-3.9-0.4-5.7-2c-1.8-1.6-28.8-24.6-28.8-24.6c-1.6-1.4-3.5-2-5.4-2c-4.1,0-8,2.5-8,8.7v38.4c0,3,2.1,4.9,4.6,4.9
		c2.8,0,4.6-1.8,5-4.5c0,0,3-18.3,3.3-20.3c0.4-2.4,0.8-4.2,3.1-4.9c2.1-0.6,4,0.6,6.9,3.1c2.9,2.5,27.2,24.5,27.2,24.5
		c1.9,1.6,3.2,2.2,5.9,2.2c2.4,0,6.7-1,6.7-8.3V66.2C148.1,62.7,145.9,60.7,143.2,60.7z"/>
	<path fill="#009FE3" d="M317.2,101.6c-21.2,4.6-45.5-0.3-45.5-15.3c0-11.3,10.5-15.9,18.8-16.6c8.7-0.7,15.5,1.1,19,4.8
		c2.2,2.3,1.6,5.4-2.7,5.6c-3.9,0.2-11.3,0.5-17.5,0.7c-3.5,0.1-5.4,2-5.4,4.5c0,2,1.5,4.3,5.5,4.3c5.8,0,20.4,0.1,27.7,0.1
		c4.8,0,7.2-2.7,7.2-8.2c0-8.8-7.9-22-31.1-22c-21,0-36.2,10.5-36.2,27.6c0,24.3,35.7,31.7,61.9,22.7c2.5-0.9,4.7-2.6,4-5.4
		C322.2,101.9,320.2,100.9,317.2,101.6z"/>
	<path fill="#009FE3" d="M71.3,101.6c-21.2,4.6-45.4-0.3-45.4-15.3c0-11.3,10.5-15.9,18.8-16.6c8.7-0.7,15.5,1.1,19,4.8
		c2.2,2.3,1.6,5.4-2.7,5.6c-4,0.2-11.4,0.5-17.5,0.7c-3.5,0.1-5.4,2-5.4,4.5c0,2,1.5,4.3,5.5,4.3c5.8,0,20.4,0.1,27.7,0.1
		c4.8,0,7.2-2.7,7.2-8.2c0-8.8-7.9-22-31.1-22c-21,0-36.2,10.5-36.2,27.6c0,24.3,35.7,31.7,61.9,22.7c2.5-0.9,4.7-2.6,4-5.4
		C76.3,101.9,74.3,100.9,71.3,101.6z"/>
	<g>
		<path fill="#009FE3" d="M235.5,78.2c0.5,13.2,1.7,24.2,2.1,28.1c0.5,5,3,6.4,5.6,6.4c2.5,0,5.1-1.3,5.5-6.3
			c0.4-4.2,1.6-17.3,2.3-30.3c0-0.7-0.4-1-1-0.9l-13.8,2.2C235.8,77.5,235.5,77.8,235.5,78.2z"/>
		<path fill="#009FE3" d="M243.2,59.5c-6.3,0-8.2,5-8.1,8c0,0.6,0.1,2.1,0.2,4.1c0,0.4,0.4,0.9,0.9,0.8l14.4-2.3
			c0.5-0.1,0.7-0.4,0.7-0.8c0-0.7,0.1-1.4,0.1-1.7C251.4,64.6,249.5,59.5,243.2,59.5z"/>
	</g>
	<path fill="#009FE3" d="M222,80.6c-4.8,0-19.6,0.1-29.1,0.1c-4.6,0-5.7,2.5-5.7,4.5c0,1.8,1.2,4.1,5.5,4.3
		c6.5,0.3,14.9,0.7,18.7,0.9c5.2,0.3,5.2,2.9,3.5,5.2c-3.5,4.6-12,7.6-20.9,7.6c-11.6,0-24.3-6.6-24.3-17c0-9.8,10.9-20.6,43.3-16
		c2.8,0.4,5.6-0.1,6.3-2.7c0.7-2.8-1.1-4.6-4.8-5.6c-7.3-1.9-14-2.4-20.4-2.4c-21.8,0-39.3,10.4-39.3,27.2c0,18,17.4,26.7,39.1,26.7
		c24.3,0,36.1-13.2,36.1-24.7C230,82.8,227,80.6,222,80.6z"/>
</g>
</svg>
