<?xml version="1.0" encoding="UTF-8" standalone="no"?>
<svg width="103px" height="95px" viewBox="0 0 103 95" version="1.1" xmlns="http://www.w3.org/2000/svg" xmlns:xlink="http://www.w3.org/1999/xlink">
    <!-- Generator: Sketch 40 (33762) - http://www.bohemiancoding.com/sketch -->
    <title>Group</title>
    <desc>Created with Sketch.</desc>
    <defs></defs>
    <g id="Page-1" stroke="none" stroke-width="1" fill="none" fill-rule="evenodd">
        <g id="Group" transform="translate(0.439560, 0.000000)" fill="#000000">
            <path d="M51.1369048,94.547619 C43.4464286,94.547619 37.1130952,88.2142857 37.1130952,80.5238095 C37.1130952,72.8333333 43.4464286,66.5 51.1369048,66.5 C58.827381,66.5 65.1607143,72.8333333 65.1607143,80.5238095 C65.1607143,88.2142857 58.9404762,94.547619 51.1369048,94.547619 L51.1369048,94.547619 Z M51.1369048,74.077381 C47.6309524,74.077381 44.6904762,76.9047619 44.6904762,80.5238095 C44.6904762,84.0297619 47.5178571,86.9702381 51.1369048,86.9702381 C54.7559524,86.9702381 57.5833333,84.1428571 57.5833333,80.5238095 C57.5833333,77.0178571 54.7559524,74.077381 51.1369048,74.077381 L51.1369048,74.077381 Z" id="Shape"></path>
            <path d="M35.8690476,67.0654762 C34.8511905,67.0654762 33.9464286,66.7261905 33.1547619,65.9345238 C31.6845238,64.4642857 31.6845238,62.0892857 33.1547619,60.5059524 C37.9047619,55.6428571 44.3511905,53.0416667 51.1369048,53.0416667 C57.8095238,53.0416667 64.0297619,55.5297619 68.7797619,60.1666667 C70.25,61.6369048 70.3630952,64.0119048 68.8928571,65.5952381 C67.422619,67.0654762 65.047619,67.1785714 63.4642857,65.7083333 C60.0714286,62.4285714 55.7738095,60.7321429 51.0238095,60.7321429 C46.2738095,60.7321429 41.75,62.5416667 38.4702381,65.9345238 C37.7916667,66.7261905 36.8869048,67.0654762 35.8690476,67.0654762 L35.8690476,67.0654762 Z" id="Shape"></path>
            <path d="M74.3214286,57.1130952 C73.3035714,57.1130952 72.3988095,56.7738095 71.6071429,55.9821429 C66.0654762,50.5535714 58.827381,47.5 51.1369048,47.5 C43.5595238,47.5 36.3214286,50.4404762 30.8928571,55.7559524 C29.422619,57.2261905 26.9345238,57.2261905 25.4642857,55.6428571 C23.9940476,54.172619 23.9940476,51.6845238 25.577381,50.2142857 C32.4761905,43.5416667 41.5238095,39.8095238 51.1369048,39.8095238 C60.8630952,39.8095238 70.0238095,43.5416667 77.0357143,50.4404762 C78.5059524,51.9107143 78.5059524,54.2857143 77.0357143,55.8690476 C76.3571429,56.7738095 75.3392857,57.1130952 74.3214286,57.1130952 L74.3214286,57.1130952 Z" id="Shape"></path>
            <path d="M82.577381,47.1607143 C81.5595238,47.1607143 80.6547619,46.8214286 79.8630952,46.0297619 C72.172619,38.3392857 61.9940476,34.1547619 51.1369048,34.1547619 C40.2797619,34.1547619 30.1011905,38.3392857 22.4107143,46.0297619 C20.9404762,47.5 18.5654762,47.5 16.9821429,46.0297619 C15.5119048,44.5595238 15.5119048,42.1845238 16.9821429,40.6011905 C26.1428571,31.4404762 38.2440476,26.4642857 51.1369048,26.4642857 C64.0297619,26.4642857 76.2440476,31.5535714 85.2916667,40.7142857 C86.7619048,42.1845238 86.7619048,44.5595238 85.2916667,46.1428571 C84.6130952,46.8214286 83.5952381,47.1607143 82.577381,47.1607143 L82.577381,47.1607143 Z" id="Shape"></path>
            <path d="M11.327381,37.3214286 C10.3095238,37.3214286 9.4047619,36.9821429 8.61309524,36.1904762 C7.14285714,34.7202381 7.14285714,32.3452381 8.61309524,30.7619048 C19.922619,19.3392857 35.077381,13.0059524 51.25,13.0059524 C67.1964286,13.0059524 82.2380952,19.2261905 93.547619,30.5357143 C95.0178571,32.0059524 95.0178571,34.3809524 93.547619,35.9642857 C92.077381,37.4345238 89.702381,37.4345238 88.1190476,35.9642857 C78.2797619,26.125 65.1607143,20.6964286 51.1369048,20.6964286 C37.1130952,20.6964286 23.8809524,26.125 14.0416667,36.1904762 C13.25,36.9821429 12.3452381,37.3214286 11.327381,37.3214286 L11.327381,37.3214286 Z" id="Shape"></path>
            <path d="M3.86309524,27.8214286 C2.8452381,27.8214286 1.94047619,27.4821429 1.14880952,26.6904762 C-0.321428571,25.2202381 -0.321428571,22.8452381 1.14880952,21.2619048 C14.4940476,7.91666667 32.25,0.452380952 51.1369048,0.452380952 C69.9107143,0.452380952 87.5535714,7.69047619 100.89881,21.0357143 C102.369048,22.5059524 102.369048,24.8809524 100.89881,26.4642857 C99.4285714,27.9345238 97.0535714,27.9345238 95.4702381,26.4642857 C83.7083333,14.5892857 67.9880952,8.14285714 51.1369048,8.14285714 C34.172619,8.14285714 18.3392857,14.8154762 6.46428571,26.8035714 C5.78571429,27.4821429 4.76785714,27.8214286 3.86309524,27.8214286 L3.86309524,27.8214286 Z" id="Shape"></path>
        </g>
    </g>
</svg>